<?xml version="1.0" encoding="UTF-8" standalone="no"?>
<svg
   version="1.1"
   width="504.24951"
   height="531.50366"
   viewBox="0 0 504.24951 531.50366"
   id="svg8"
   xmlns="http://www.w3.org/2000/svg"
   xmlns:svg="http://www.w3.org/2000/svg">
  <defs
     id="defs8" />
  <path
     d="M 283.02059,0.56852364 C 136.79893,-8.9529964 10.090038,102.26296 0.56851844,248.4846 -8.9530016,394.70627 102.26296,521.41517 248.48461,530.93667 c 89.27864,5.81356 174.83291,-33.35523 229.00789,-104.76588 4.2166,-5.5504 3.0183,-13.63461 -2.531,-17.86799 L 291.23466,267.94453 497.293,162.73255 c 6.209,-3.17184 8.755,-10.85158 5.6006,-17.06795 C 460.5662,62.136594 376.30646,6.6430236 283.02059,0.56852364 Z M 281.37602,25.824154 c 80.20344,5.2226 152.78128,50.95171 192.68998,120.338926 l -154.10855,78.55933 -58.21685,29.67697 c -3.87359,1.97124 -6.33745,5.79274 -6.73817,10.12904 -0.39176,4.32842 1.36502,8.50931 4.82033,11.14376 L 449.32,420.63329 C 400.10427,478.98385 326.70424,510.66738 250.12918,505.68106 117.83179,497.06624 17.209338,382.42657 25.824148,250.12917 34.438958,117.83179 149.07862,17.209344 281.37602,25.824154 Z m -28.49019,60.23273 c -29.13658,-1.89728 -54.42277,20.297106 -56.32004,49.433676 -1.89675,29.12816 20.2971,54.42276 49.43367,56.32005 29.12815,1.89673 54.42331,-20.30553 56.32005,-49.43369 1.89728,-29.13657 -20.30552,-54.423306 -49.43368,-56.320036 z m -1.64457,25.255626 c 15.20388,0.99002 26.81321,14.20753 25.82262,29.41984 -0.99003,15.20389 -14.21597,26.81266 -29.41985,25.82263 -15.2123,-0.99058 -26.81265,-14.21596 -25.82263,-29.41985 0.99059,-15.21231 14.20755,-26.8132 29.41986,-25.82262 z"
     fill="#2ecc40"
     fill-rule="evenodd"
     data-fill-palette-color="accent"
     id="path3"
     style="stroke-width:8.43637" />
</svg>
