<?xml version="1.0" encoding="UTF-8" standalone="no"?>
<svg
   version="1.1"
   width="998.39795"
   height="378.11298"
   viewBox="0 0 998.39795 378.11298"
   id="svg8"
   xmlns="http://www.w3.org/2000/svg"
   xmlns:svg="http://www.w3.org/2000/svg">
  <defs
     id="defs8" />
  <path
     d="M 189.05651,-1.7011719e-5 C 84.811353,-1.7011719e-5 4.7021484e-6,84.811331 4.7021484e-6,189.05649 4.7021484e-6,293.30164 84.811353,378.11299 189.05651,378.11299 c 63.64902,0 122.57463,-31.76149 157.73314,-84.96139 2.73682,-4.13524 1.51245,-9.81894 -2.62278,-12.56776 L 207.24795,189.4346 348.66821,105.21743 c 4.26128,-2.53876 5.71371,-8.108423 3.18696,-12.375699 C 317.94503,35.500593 255.56239,-1.7011719e-5 189.05651,-1.7011719e-5 Z m 0,18.005381011719 c 57.17909,0 110.81712,29.1087 142.35655,76.522871 L 185.6835,181.18213 c -2.65879,1.57848 -4.23126,4.40532 -4.31529,7.50225 -0.078,3.09092 1.36241,5.97778 3.93718,7.68829 l 141.22821,94.15014 c -32.24164,43.69906 -82.88477,69.5848 -137.47709,69.5848 -94.31819,0 -171.051124,-76.73293 -171.051124,-171.05112 0,-94.318192 76.732934,-171.051126 171.051124,-171.051126 z M 171.6153,62.082538 c -20.77221,0 -37.69727,16.925059 -37.69727,37.697267 0,20.766205 16.92506,37.697265 37.69727,37.697265 20.7662,0 37.69726,-16.93106 37.69726,-37.697265 0,-20.772208 -16.93106,-37.697267 -37.69726,-37.697267 z m 0,18.005381 c 10.83924,0 19.69188,8.846645 19.69188,19.691886 0,10.839235 -8.85264,19.691885 -19.69188,19.691885 -10.84524,0 -19.69189,-8.85265 -19.69189,-19.691885 0,-10.845241 8.84665,-19.691886 19.69189,-19.691886 z"
     fill="#2ecc40"
     fill-rule="evenodd"
     data-fill-palette-color="accent"
     id="path3"
     style="stroke-width:6.00179" />
  <path
     d="m 394.91945,257.45608 v 0 h 29.30259 q 4.4212,0 6.93839,-2.3881 2.51718,-2.35583 2.51718,-5.51844 0,-3.13034 -2.51718,-5.48617 -2.51719,-2.38809 -6.93839,-2.38809 v 0 h -29.30259 q -4.42121,0 -6.93839,2.38809 -2.51718,2.35583 -2.51718,5.48617 0,3.16261 2.51718,5.51844 2.51718,2.3881 6.93839,2.3881 z m 0,-20.16974 v 0 h 29.30259 q 4.4212,0 6.93839,-2.38809 2.51718,-2.35583 2.51718,-5.51844 0,-3.13035 -2.51718,-5.48617 -2.51719,-2.3881 -6.93839,-2.3881 v 0 h -29.30259 q -4.42121,0 -6.93839,2.3881 -2.51718,2.35582 -2.51718,5.48617 0,3.16261 2.51718,5.51844 2.51718,2.38809 6.93839,2.38809 z m 0,-20.16973 v 0 h 29.30259 q 4.4212,0 6.93839,-2.3881 2.51718,-2.35582 2.51718,-5.51844 0,-3.13034 -2.51718,-5.48616 -2.51719,-2.3881 -6.93839,-2.3881 v 0 h -29.30259 q -4.42121,0 -6.93839,2.3881 -2.51718,2.35582 -2.51718,5.48616 0,3.16262 2.51718,5.51844 2.51718,2.3881 6.93839,2.3881 z m 0,-20.16974 v 0 h 89.81179 q 4.4212,0 6.93839,-2.38809 2.51718,-2.35583 2.51718,-5.51844 0,-3.13034 -2.51718,-5.48617 -2.51719,-2.38809 -6.93839,-2.38809 v 0 h -89.81179 q -4.42121,0 -6.93839,2.38809 -2.51718,2.35583 -2.51718,5.48617 0,3.16261 2.51718,5.51844 2.51718,2.38809 6.93839,2.38809 z m 0,-20.16973 v 0 h 29.30259 q 4.4212,0 6.93839,-2.3881 2.51718,-2.35582 2.51718,-5.51843 0,-3.13035 -2.51718,-5.48617 -2.51719,-2.3881 -6.93839,-2.3881 v 0 h -29.30259 q -4.42121,0 -6.93839,2.3881 -2.51718,2.35582 -2.51718,5.48617 0,3.16261 2.51718,5.51843 2.51718,2.3881 6.93839,2.3881 z m 80.67893,0 v 0 h 29.30259 q 4.42121,0 6.93839,-2.3881 2.51718,-2.35582 2.51718,-5.51843 0,-3.13035 -2.51718,-5.48617 -2.51718,-2.3881 -6.93839,-2.3881 v 0 h -29.30259 q -4.4212,0 -6.93839,2.3881 -2.51718,2.35582 -2.51718,5.48617 0,3.16261 2.51718,5.51843 2.51719,2.3881 6.93839,2.3881 z m -80.67893,-20.16973 v 0 h 29.30259 q 4.4212,0 6.93839,-2.3881 2.51718,-2.35582 2.51718,-5.51844 0,-3.13034 -2.51718,-5.48617 -2.51719,-2.38809 -6.93839,-2.38809 v 0 h -29.30259 q -4.42121,0 -6.93839,2.38809 -2.51718,2.35583 -2.51718,5.48617 0,3.16262 2.51718,5.51844 2.51718,2.3881 6.93839,2.3881 z m 80.67893,0 v 0 h 29.30259 q 4.42121,0 6.93839,-2.3881 2.51718,-2.35582 2.51718,-5.51844 0,-3.13034 -2.51718,-5.48617 -2.51718,-2.38809 -6.93839,-2.38809 v 0 h -29.30259 q -4.4212,0 -6.93839,2.38809 -2.51718,2.35583 -2.51718,5.48617 0,3.16262 2.51718,5.51844 2.51719,2.3881 6.93839,2.3881 z m -80.67893,-20.16974 v 0 h 89.81179 q 4.4212,0 6.93839,-2.38809 2.51718,-2.35583 2.51718,-5.51844 0,-3.13034 -2.51718,-5.48617 -2.51719,-2.3881 -6.93839,-2.3881 v 0 h -89.81179 q -4.42121,0 -6.93839,2.3881 -2.51718,2.35583 -2.51718,5.48617 0,3.16261 2.51718,5.51844 2.51718,2.38809 6.93839,2.38809 z m 181.5276,121.01841 v 0 h 69.64206 q 4.4212,0 6.93839,-2.3881 2.51718,-2.35583 2.51718,-5.51844 0,-3.13034 -2.51718,-5.48617 -2.51719,-2.38809 -6.93839,-2.38809 v 0 h -69.64206 q -4.4212,0 -6.93839,2.38809 -2.51718,2.35583 -2.51718,5.48617 0,3.16261 2.51718,5.51844 2.51719,2.3881 6.93839,2.3881 z m -20.16973,-20.16974 v 0 h 29.30259 q 4.4212,0 6.93839,-2.38809 2.51718,-2.35583 2.51718,-5.51844 0,-3.13035 -2.51718,-5.48617 -2.51719,-2.3881 -6.93839,-2.3881 v 0 h -29.30259 q -4.42121,0 -6.93839,2.3881 -2.51718,2.35582 -2.51718,5.48617 0,3.16261 2.51718,5.51844 2.51718,2.38809 6.93839,2.38809 z m 80.67893,0 v 0 h 29.30259 q 4.42121,0 6.93839,-2.38809 2.51718,-2.35583 2.51718,-5.51844 0,-3.13035 -2.51718,-5.48617 -2.51718,-2.3881 -6.93839,-2.3881 v 0 h -29.30259 q -4.4212,0 -6.93839,2.3881 -2.51718,2.35582 -2.51718,5.48617 0,3.16261 2.51718,5.51844 2.51719,2.38809 6.93839,2.38809 z m -80.67893,-20.16973 v 0 h 29.30259 q 4.4212,0 6.93839,-2.3881 2.51718,-2.35582 2.51718,-5.51844 0,-3.13034 -2.51718,-5.48616 -2.51719,-2.3881 -6.93839,-2.3881 v 0 h -29.30259 q -4.42121,0 -6.93839,2.3881 -2.51718,2.35582 -2.51718,5.48616 0,3.16262 2.51718,5.51844 2.51718,2.3881 6.93839,2.3881 z m 80.67893,0 v 0 h 29.30259 q 4.42121,0 6.93839,-2.3881 2.51718,-2.35582 2.51718,-5.51844 0,-3.13034 -2.51718,-5.48616 -2.51718,-2.3881 -6.93839,-2.3881 v 0 h -29.30259 q -4.4212,0 -6.93839,2.3881 -2.51718,2.35582 -2.51718,5.48616 0,3.16262 2.51718,5.51844 2.51719,2.3881 6.93839,2.3881 z m -80.67893,-20.16974 v 0 h 29.30259 q 4.4212,0 6.93839,-2.38809 2.51718,-2.35583 2.51718,-5.51844 0,-3.13034 -2.51718,-5.48617 -2.51719,-2.38809 -6.93839,-2.38809 v 0 h -29.30259 q -4.42121,0 -6.93839,2.38809 -2.51718,2.35583 -2.51718,5.48617 0,3.16261 2.51718,5.51844 2.51718,2.38809 6.93839,2.38809 z m 80.67893,0 v 0 h 29.30259 q 4.42121,0 6.93839,-2.38809 2.51718,-2.35583 2.51718,-5.51844 0,-3.13034 -2.51718,-5.48617 -2.51718,-2.38809 -6.93839,-2.38809 v 0 h -29.30259 q -4.4212,0 -6.93839,2.38809 -2.51718,2.35583 -2.51718,5.48617 0,3.16261 2.51718,5.51844 2.51719,2.38809 6.93839,2.38809 z m -80.67893,-20.16973 v 0 h 29.30259 q 4.4212,0 6.93839,-2.3881 2.51718,-2.35582 2.51718,-5.51843 0,-3.13035 -2.51718,-5.48617 -2.51719,-2.3881 -6.93839,-2.3881 v 0 h -29.30259 q -4.42121,0 -6.93839,2.3881 -2.51718,2.35582 -2.51718,5.48617 0,3.16261 2.51718,5.51843 2.51718,2.3881 6.93839,2.3881 z m 80.67893,0 v 0 h 29.30259 q 4.42121,0 6.93839,-2.3881 2.51718,-2.35582 2.51718,-5.51843 0,-3.13035 -2.51718,-5.48617 -2.51718,-2.3881 -6.93839,-2.3881 v 0 h -29.30259 q -4.4212,0 -6.93839,2.3881 -2.51718,2.35582 -2.51718,5.48617 0,3.16261 2.51718,5.51843 2.51719,2.3881 6.93839,2.3881 z m -80.67893,-20.16973 v 0 h 29.30259 q 4.4212,0 6.93839,-2.3881 2.51718,-2.35582 2.51718,-5.51844 0,-3.13034 -2.51718,-5.48617 -2.51719,-2.38809 -6.93839,-2.38809 v 0 h -29.30259 q -4.42121,0 -6.93839,2.38809 -2.51718,2.35583 -2.51718,5.48617 0,3.16262 2.51718,5.51844 2.51718,2.3881 6.93839,2.3881 z m 80.67893,0 v 0 h 29.30259 q 4.42121,0 6.93839,-2.3881 2.51718,-2.35582 2.51718,-5.51844 0,-3.13034 -2.51718,-5.48617 -2.51718,-2.38809 -6.93839,-2.38809 v 0 h -29.30259 q -4.4212,0 -6.93839,2.38809 -2.51718,2.35583 -2.51718,5.48617 0,3.16262 2.51718,5.51844 2.51719,2.3881 6.93839,2.3881 z m -80.67893,-20.16974 v 0 h 29.30259 q 4.4212,0 6.93839,-2.38809 2.51718,-2.35583 2.51718,-5.51844 0,-3.13034 -2.51718,-5.48617 -2.51719,-2.3881 -6.93839,-2.3881 v 0 h -29.30259 q -4.42121,0 -6.93839,2.3881 -2.51718,2.35583 -2.51718,5.48617 0,3.16261 2.51718,5.51844 2.51718,2.38809 6.93839,2.38809 z m 80.67893,0 v 0 h 29.30259 q 4.42121,0 6.93839,-2.38809 2.51718,-2.35583 2.51718,-5.51844 0,-3.13034 -2.51718,-5.48617 -2.51718,-2.3881 -6.93839,-2.3881 v 0 h -29.30259 q -4.4212,0 -6.93839,2.3881 -2.51718,2.35583 -2.51718,5.48617 0,3.16261 2.51718,5.51844 2.51719,2.38809 6.93839,2.38809 z m 80.64667,121.01841 v 0 h 89.84406 q 4.38893,0 6.90611,-2.3881 2.54946,-2.35583 2.54946,-5.51844 0,-3.13034 -2.54946,-5.48617 -2.51718,-2.38809 -6.90611,-2.38809 v 0 h -89.84406 q -4.38894,0 -6.90612,2.38809 -2.54946,2.35583 -2.54946,5.48617 0,3.16261 2.54946,5.51844 2.51718,2.3881 6.90612,2.3881 z m 0,-20.16974 v 0 h 29.33486 q 4.38893,0 6.90611,-2.38809 2.54946,-2.35583 2.54946,-5.51844 0,-3.13035 -2.54946,-5.48617 -2.51718,-2.3881 -6.90611,-2.3881 v 0 h -29.33486 q -4.38894,0 -6.90612,2.3881 -2.54946,2.35582 -2.54946,5.48617 0,3.16261 2.54946,5.51844 2.51718,2.38809 6.90612,2.38809 z m 80.67893,0 v 0 h 29.33486 q 4.38894,0 6.90612,-2.38809 2.54945,-2.35583 2.54945,-5.51844 0,-3.13035 -2.54945,-5.48617 -2.51718,-2.3881 -6.90612,-2.3881 v 0 h -29.33486 q -4.38893,0 -6.90612,2.3881 -2.54945,2.35582 -2.54945,5.48617 0,3.16261 2.54945,5.51844 2.51719,2.38809 6.90612,2.38809 z m -80.67893,-20.16973 v 0 h 29.33486 q 4.38893,0 6.90611,-2.3881 2.54946,-2.35582 2.54946,-5.51844 0,-3.13034 -2.54946,-5.48616 -2.51718,-2.3881 -6.90611,-2.3881 v 0 h -29.33486 q -4.38894,0 -6.90612,2.3881 -2.54946,2.35582 -2.54946,5.48616 0,3.16262 2.54946,5.51844 2.51718,2.3881 6.90612,2.3881 z m 80.67893,0 v 0 h 29.33486 q 4.38894,0 6.90612,-2.3881 2.54945,-2.35582 2.54945,-5.51844 0,-3.13034 -2.54945,-5.48616 -2.51718,-2.3881 -6.90612,-2.3881 v 0 h -29.33486 q -4.38893,0 -6.90612,2.3881 -2.54945,2.35582 -2.54945,5.48616 0,3.16262 2.54945,5.51844 2.51719,2.3881 6.90612,2.3881 z m -80.67893,-20.16974 v 0 h 89.84406 q 4.38893,0 6.90611,-2.38809 2.54946,-2.35583 2.54946,-5.51844 0,-3.13034 -2.54946,-5.48617 -2.51718,-2.38809 -6.90611,-2.38809 v 0 h -89.84406 q -4.38894,0 -6.90612,2.38809 -2.54946,2.35583 -2.54946,5.48617 0,3.16261 2.54946,5.51844 2.51718,2.38809 6.90612,2.38809 z m 0,-20.16973 v 0 h 29.33486 q 4.38893,0 6.90611,-2.3881 2.54946,-2.35582 2.54946,-5.51843 0,-3.13035 -2.54946,-5.48617 -2.51718,-2.3881 -6.90611,-2.3881 v 0 h -29.33486 q -4.38894,0 -6.90612,2.3881 -2.54946,2.35582 -2.54946,5.48617 0,3.16261 2.54946,5.51843 2.51718,2.3881 6.90612,2.3881 z m 80.67893,0 v 0 h 29.33486 q 4.38894,0 6.90612,-2.3881 2.54945,-2.35582 2.54945,-5.51843 0,-3.13035 -2.54945,-5.48617 -2.51718,-2.3881 -6.90612,-2.3881 v 0 h -29.33486 q -4.38893,0 -6.90612,2.3881 -2.54945,2.35582 -2.54945,5.48617 0,3.16261 2.54945,5.51843 2.51719,2.3881 6.90612,2.3881 z m -80.67893,-20.16973 v 0 h 29.33486 q 4.38893,0 6.90611,-2.3881 2.54946,-2.35582 2.54946,-5.51844 0,-3.13034 -2.54946,-5.48617 -2.51718,-2.38809 -6.90611,-2.38809 v 0 h -29.33486 q -4.38894,0 -6.90612,2.38809 -2.54946,2.35583 -2.54946,5.48617 0,3.16262 2.54946,5.51844 2.51718,2.3881 6.90612,2.3881 z m 80.67893,0 v 0 h 29.33486 q 4.38894,0 6.90612,-2.3881 2.54945,-2.35582 2.54945,-5.51844 0,-3.13034 -2.54945,-5.48617 -2.51718,-2.38809 -6.90612,-2.38809 v 0 h -29.33486 q -4.38893,0 -6.90612,2.38809 -2.54945,2.35583 -2.54945,5.48617 0,3.16262 2.54945,5.51844 2.51719,2.3881 6.90612,2.3881 z m -80.67893,-20.16974 v 0 h 89.84406 q 4.38893,0 6.90611,-2.38809 2.54946,-2.35583 2.54946,-5.51844 0,-3.13034 -2.54946,-5.48617 -2.51718,-2.3881 -6.90611,-2.3881 v 0 h -89.84406 q -4.38894,0 -6.90612,2.3881 -2.54946,2.35583 -2.54946,5.48617 0,3.16261 2.54946,5.51844 2.51718,2.38809 6.90612,2.38809 z m 181.5276,121.01841 v 0 h 69.64206 q 4.4212,0 6.93838,-2.3881 2.51719,-2.35583 2.51719,-5.51844 0,-3.13034 -2.51719,-5.48617 -2.51718,-2.38809 -6.93838,-2.38809 v 0 h -69.64206 q -4.42121,0 -6.93839,2.38809 -2.51718,2.35583 -2.51718,5.48617 0,3.16261 2.51718,5.51844 2.51718,2.3881 6.93839,2.3881 z m -20.16973,-20.16974 v 0 h 29.30259 q 4.4212,0 6.93838,-2.38809 2.51719,-2.35583 2.51719,-5.51844 0,-3.13035 -2.51719,-5.48617 -2.51718,-2.3881 -6.93838,-2.3881 v 0 h -29.30259 q -4.42121,0 -6.93839,2.3881 -2.51719,2.35582 -2.51719,5.48617 0,3.16261 2.51719,5.51844 2.51718,2.38809 6.93839,2.38809 z m 80.67893,0 v 0 h 29.30259 q 4.42121,0 6.93839,-2.38809 2.51718,-2.35583 2.51718,-5.51844 0,-3.13035 -2.51718,-5.48617 -2.51718,-2.3881 -6.93839,-2.3881 v 0 h -29.30259 q -4.4212,0 -6.93839,2.3881 -2.51718,2.35582 -2.51718,5.48617 0,3.16261 2.51718,5.51844 2.51719,2.38809 6.93839,2.38809 z m -80.67893,-20.16973 v 0 h 29.30259 q 4.4212,0 6.93838,-2.3881 2.51719,-2.35582 2.51719,-5.51844 0,-3.13034 -2.51719,-5.48616 -2.51718,-2.3881 -6.93838,-2.3881 v 0 h -29.30259 q -4.42121,0 -6.93839,2.3881 -2.51719,2.35582 -2.51719,5.48616 0,3.16262 2.51719,5.51844 2.51718,2.3881 6.93839,2.3881 z m 80.67893,0 v 0 h 29.30259 q 4.42121,0 6.93839,-2.3881 2.51718,-2.35582 2.51718,-5.51844 0,-3.13034 -2.51718,-5.48616 -2.51718,-2.3881 -6.93839,-2.3881 v 0 h -29.30259 q -4.4212,0 -6.93839,2.3881 -2.51718,2.35582 -2.51718,5.48616 0,3.16262 2.51718,5.51844 2.51719,2.3881 6.93839,2.3881 z m -80.67893,-20.16974 v 0 h 29.30259 q 4.4212,0 6.93838,-2.38809 2.51719,-2.35583 2.51719,-5.51844 0,-3.13034 -2.51719,-5.48617 -2.51718,-2.38809 -6.93838,-2.38809 v 0 h -29.30259 q -4.42121,0 -6.93839,2.38809 -2.51719,2.35583 -2.51719,5.48617 0,3.16261 2.51719,5.51844 2.51718,2.38809 6.93839,2.38809 z m 60.5092,0 v 0 h 49.47232 q 4.42121,0 6.93839,-2.38809 2.51718,-2.35583 2.51718,-5.51844 0,-3.13034 -2.51718,-5.48617 -2.51718,-2.38809 -6.93839,-2.38809 v 0 h -49.47232 q -4.42121,0 -6.93839,2.38809 -2.51718,2.35583 -2.51718,5.48617 0,3.16261 2.51718,5.51844 2.51718,2.38809 6.93839,2.38809 z m -60.5092,-20.16973 v 0 h 29.30259 q 4.4212,0 6.93838,-2.3881 2.51719,-2.35582 2.51719,-5.51843 0,-3.13035 -2.51719,-5.48617 -2.51718,-2.3881 -6.93838,-2.3881 v 0 h -29.30259 q -4.42121,0 -6.93839,2.3881 -2.51719,2.35582 -2.51719,5.48617 0,3.16261 2.51719,5.51843 2.51718,2.3881 6.93839,2.3881 z m 0,-20.16973 v 0 h 29.30259 q 4.4212,0 6.93838,-2.3881 2.51719,-2.35582 2.51719,-5.51844 0,-3.13034 -2.51719,-5.48617 -2.51718,-2.38809 -6.93838,-2.38809 v 0 h -29.30259 q -4.42121,0 -6.93839,2.38809 -2.51719,2.35583 -2.51719,5.48617 0,3.16262 2.51719,5.51844 2.51718,2.3881 6.93839,2.3881 z m 80.67893,0 v 0 h 29.30259 q 4.42121,0 6.93839,-2.3881 2.51718,-2.35582 2.51718,-5.51844 0,-3.13034 -2.51718,-5.48617 -2.51718,-2.38809 -6.93839,-2.38809 v 0 h -29.30259 q -4.4212,0 -6.93839,2.38809 -2.51718,2.35583 -2.51718,5.48617 0,3.16262 2.51718,5.51844 2.51719,2.3881 6.93839,2.3881 z m -60.5092,-20.16974 v 0 h 69.64206 q 4.4212,0 6.93838,-2.38809 2.51719,-2.35583 2.51719,-5.51844 0,-3.13034 -2.51719,-5.48617 -2.51718,-2.3881 -6.93838,-2.3881 v 0 h -69.64206 q -4.42121,0 -6.93839,2.3881 -2.51718,2.35583 -2.51718,5.48617 0,3.16261 2.51718,5.51844 2.51718,2.38809 6.93839,2.38809 z"
     fill="#00cf00"
     data-fill-palette-color="primary"
     id="path1"
     style="stroke-width:3.22716" />
</svg>
